<?xml version="1.0" encoding="utf-8"?>
<svg xmlns="http://www.w3.org/2000/svg" xmlns:svg="http://www.w3.org/2000/svg" version="1.1" viewBox="0 0 1400 690">
	<title>The titlepage for the Standard Ebooks edition of The Three Musketeers, by Alexandre Dumas. Translated by William Robson</title>
	<g aria-label="THE">
		<path d="m 605.10526,68.245613 h 18.33918 V 130 h 17.59065 V 68.245613 h 18.33918 V 52.807016 h -54.26901 z"/>
		<path d="M 688.29971,99.029239 H 713.1886 V 130 h 17.59064 V 52.807016 H 713.1886 V 83.590642 H 688.29971 V 52.807016 H 670.70906 V 130 h 17.59065 z"/>
		<path d="M 791.14474,52.807016 H 746.981 V 130 h 44.16374 v -15.4386 h -26.5731 V 99.029239 h 25.45029 V 83.590642 H 764.57164 V 68.245613 h 26.5731 z"/>
	</g>
	<g aria-label="THREE MUSKETEERS">
		<path d="m 178.50803,168.24561 h 18.33918 V 230 h 17.59065 v -61.75439 h 18.33918 v -15.43859 h -54.26901 z"/>
		<path d="m 261.70248,199.02924 h 24.88889 V 230 h 17.59064 v -77.19298 h -17.59064 v 30.78362 H 261.70248 V 152.80702 H 244.11183 V 230 h 17.59065 z"/>
		<path d="M 320.38377,152.80702 V 230 h 17.59064 V 199.49708 L 361.55336,230 h 22.36257 l -26.5731,-31.90643 c 9.4503,-2.99416 15.81287,-10.76024 15.81287,-22.36258 0,-15.15789 -10.8538,-22.92397 -25.16959,-22.92397 z m 17.59064,34.24561 V 166.8421 h 2.05848 c 6.64328,0 14.59649,0.46784 14.59649,10.10527 0,9.63742 -7.95321,10.10526 -14.59649,10.10526 z"/>
		<path d="M 436.61622,152.80702 H 392.45248 V 230 h 44.16374 v -15.4386 h -26.5731 v -15.53216 h 25.45029 v -15.4386 h -25.45029 v -15.34503 h 26.5731 z"/>
		<path d="M 495.89256,152.80702 H 451.72882 V 230 h 44.16374 v -15.4386 h -26.5731 v -15.53216 h 25.45029 v -15.4386 h -25.45029 v -15.34503 h 26.5731 z"/>
		<path d="m 605.4028,230 h 17.59064 l -6.92398,-77.19298 h -18.71345 l -17.1228,44.53801 -17.12281,-44.53801 H 544.39695 L 537.47297,230 h 17.59064 l 3.64913,-45.75439 h 0.46783 l 15.81287,45.28655 h 10.47953 l 15.81287,-45.28655 h 0.46783 z"/>
		<path d="m 694.36186,152.80702 h -17.59065 v 44.63158 c 0,12.91228 -3.92982,16.65497 -12.53801,16.65497 -8.60819,0 -12.53801,-3.74269 -12.53801,-16.65497 v -44.63158 h -17.59065 v 49.77777 c 0,19.08772 10.47954,28.81872 30.12866,28.81872 19.64912,0 30.12866,-9.731 30.12866,-28.81872 z"/>
		<path d="m 736.28434,151.40351 c -12.44444,0 -25.16959,9.16959 -25.16959,23.57895 0,8.04678 5.4269,15.25146 14.69006,19.83625 9.16959,4.5848 17.40351,7.11111 17.40351,12.72515 0,7.20468 -7.29824,7.57895 -11.1345,7.57895 -8.60819,0 -18.90059,-8.70176 -18.90059,-8.70176 l -8.79532,14.78363 c 0,0 10.94737,10.19883 29.00585,10.19883 15.06433,0 29.09942,-6.45614 29.09942,-24.88889 0,-10.10526 -9.4503,-17.40351 -18.05848,-21.05263 -8.79533,-3.74269 -16.09357,-6.83041 -16.09357,-11.13451 0,-4.21052 3.18128,-6.92397 9.16959,-6.92397 7.95321,0 15.62573,5.33333 15.62573,5.33333 l 7.11111,-14.03509 c 0,0 -9.91813,-7.29824 -23.95322,-7.29824 z"/>
		<path d="m 845.97445,230 -35.92983,-40.60819 31.06433,-36.58479 h -21.33334 l -26.47953,31.53216 V 152.80702 H 775.70544 V 230 h 17.59064 V 197.25146 L 821.74053,230 Z"/>
		<path d="M 898.51683,152.80702 H 854.35308 V 230 h 44.16375 v -15.4386 h -26.5731 v -15.53216 h 25.45029 v -15.4386 h -25.45029 v -15.34503 h 26.5731 z"/>
		<path d="m 908.76389,168.24561 h 18.33918 V 230 h 17.59065 v -61.75439 h 18.33918 v -15.43859 h -54.26901 z"/>
		<path d="M 1018.5314,152.80702 H 974.36767 V 230 h 44.16373 v -15.4386 h -26.57309 v -15.53216 h 25.45029 v -15.4386 h -25.45029 v -15.34503 h 26.57309 z"/>
		<path d="M 1077.8078,152.80702 H 1033.644 V 230 h 44.1638 v -15.4386 h -26.5731 v -15.53216 h 25.4503 v -15.4386 h -25.4503 v -15.34503 h 26.5731 z"/>
		<path d="M 1092.9203,152.80702 V 230 h 17.5907 V 199.49708 L 1134.0899,230 h 22.3626 l -26.5731,-31.90643 c 9.4503,-2.99416 15.8129,-10.76024 15.8129,-22.36258 0,-15.15789 -10.8538,-22.92397 -25.1696,-22.92397 z m 17.5907,34.24561 V 166.8421 h 2.0585 c 6.6432,0 14.5965,0.46784 14.5965,10.10527 0,9.63742 -7.9533,10.10526 -14.5965,10.10526 z"/>
		<path d="m 1193.4335,151.40351 c -12.4444,0 -25.1696,9.16959 -25.1696,23.57895 0,8.04678 5.4269,15.25146 14.6901,19.83625 9.1696,4.5848 17.4035,7.11111 17.4035,12.72515 0,7.20468 -7.2983,7.57895 -11.1345,7.57895 -8.6082,0 -18.9006,-8.70176 -18.9006,-8.70176 l -8.7953,14.78363 c 0,0 10.9473,10.19883 29.0058,10.19883 15.0644,0 29.0994,-6.45614 29.0994,-24.88889 0,-10.10526 -9.4502,-17.40351 -18.0584,-21.05263 -8.7954,-3.74269 -16.0936,-6.83041 -16.0936,-11.13451 0,-4.21052 3.1813,-6.92397 9.1696,-6.92397 7.9532,0 15.6257,5.33333 15.6257,5.33333 l 7.1111,-14.03509 c 0,0 -9.9181,-7.29824 -23.9532,-7.29824 z"/>
	</g>
	<g aria-label="ALEXANDRE DUMAS">
		<path d="M 329.91886,332.10526 H 317.70834 L 294.33992,390 h 14.17543 l 4.28071,-11.57895 h 22.03508 L 339.11185,390 h 14.17543 z m 0.42106,34.73685 H 317.28728 L 323.74342,350 h 0.14036 z"/>
		<path d="M 373.66996,332.10526 H 360.47698 V 390 h 33.12281 v -11.57895 h -19.92983 z"/>
		<path d="m 438.21053,332.10526 h -33.1228 V 390 h 33.1228 v -11.57895 h -19.92982 v -11.64912 h 19.08772 v -11.57895 h -19.08772 v -11.50877 h 19.92982 z"/>
		<path d="m 504.97039,390 -22.59649,-31.15789 18.94737,-26.73685 h -16.42105 l -10.66667,15.78948 -10.66666,-15.78948 h -15.7193 L 466.0932,358.84211 444.19847,390 h 16.35087 L 474.23355,370.2807 487.91776,390 Z"/>
		<path d="M 541.25659,332.10526 H 529.04606 L 505.67764,390 h 14.17544 l 4.2807,-11.57895 h 22.03509 L 550.44957,390 h 14.17544 z m 0.42105,34.73685 H 528.62501 L 535.08115,350 h 0.14035 z"/>
		<path d="m 585.00768,354.07018 h 0.14035 L 608.16558,390 h 13.19298 v -57.89474 h -13.19298 v 35.92983 h -0.14035 L 585.00768,332.10526 H 571.8147 V 390 h 13.19298 z"/>
		<path d="M 634.79166,332.10526 V 390 h 16.77193 c 15.92982,0 29.19298,-12.07018 29.19298,-28.98246 0,-16.8421 -13.33333,-28.91228 -29.19298,-28.91228 z m 13.19298,46.10527 v -34.31579 h 2.03509 c 9.82456,0 16.49123,7.50877 16.49123,17.19298 -0.0702,9.68421 -6.73684,17.12281 -16.49123,17.12281 z"/>
		<path d="M 691.6009,332.10526 V 390 h 13.19298 V 367.12281 L 722.47809,390 h 16.77193 l -19.92983,-23.92982 c 7.08772,-2.24562 11.85965,-8.07018 11.85965,-16.77193 0,-11.36842 -8.14035,-17.19299 -18.87719,-17.19299 z m 13.19298,25.68421 v -15.15789 h 1.54386 c 4.98245,0 10.94737,0.35088 10.94737,7.57895 0,7.22807 -5.96492,7.57894 -10.94737,7.57894 z"/>
		<path d="M 780.02522,332.10526 H 746.90241 V 390 h 33.12281 v -11.57895 h -19.92983 v -11.64912 h 19.08772 v -11.57895 h -19.08772 v -11.50877 h 19.92983 z"/>
		<path d="M 816.79825,332.10526 V 390 h 16.77193 c 15.92983,0 29.19298,-12.07018 29.19298,-28.98246 0,-16.8421 -13.33333,-28.91228 -29.19298,-28.91228 z m 13.19298,46.10527 v -34.31579 h 2.03509 c 9.82456,0 16.49123,7.50877 16.49123,17.19298 -0.0702,9.68421 -6.73684,17.12281 -16.49123,17.12281 z"/>
		<path d="M 918.09868,332.10526 H 904.9057 v 33.47369 c 0,9.68421 -2.94737,12.49123 -9.40351,12.49123 -6.45614,0 -9.40351,-2.80702 -9.40351,-12.49123 V 332.10526 H 872.9057 v 37.33334 c 0,14.31579 7.85965,21.61403 22.59649,21.61403 14.73685,0 22.59649,-7.29824 22.59649,-21.61403 z"/>
		<path d="m 978.6875,390 h 13.19299 l -5.19299,-57.89474 h -14.03508 l -12.84211,33.40351 -12.8421,-33.40351 H 932.93312 L 927.74014,390 h 13.19298 l 2.73684,-34.31579 h 0.35088 l 11.85965,33.96491 h 7.85964 l 11.85965,-33.96491 h 0.35088 z"/>
		<path d="m 1031.5691,332.10526 h -12.2106 L 995.99012,390 h 14.17548 l 4.2807,-11.57895 h 22.0351 L 1040.7621,390 h 14.1754 z m 0.421,34.73685 h -13.0526 L 1025.3936,350 h 0.1404 z"/>
		<path d="m 1082.0899,331.05263 c -9.3333,0 -18.8772,6.8772 -18.8772,17.68421 0,6.03509 4.0702,11.4386 11.0175,14.8772 6.8772,3.43859 13.0527,5.33333 13.0527,9.54385 0,5.40351 -5.4737,5.68422 -8.3509,5.68422 -6.4561,0 -14.1754,-6.52632 -14.1754,-6.52632 l -6.5965,11.08772 c 0,0 8.2105,7.64912 21.7544,7.64912 11.2982,0 21.8245,-4.8421 21.8245,-18.66666 0,-7.57895 -7.0877,-13.05264 -13.5438,-15.78948 -6.5965,-2.80702 -12.0702,-5.12281 -12.0702,-8.35088 0,-3.15789 2.386,-5.19298 6.8772,-5.19298 5.9649,0 11.7193,4 11.7193,4 l 5.3333,-10.52631 c 0,0 -7.4386,-5.47369 -17.9649,-5.47369 z"/>
	</g>
	<g aria-label="translated by">
		<path d="m 594.75525,563.42189 c 0,1.19023 2.50797,0.25505 2.50797,1.14772 0,1.14771 -1.78533,8.034 -1.78533,11.94474 0,3.31562 1.57279,3.99575 2.72051,3.99575 2.63549,0 6.24867,-2.89055 6.24867,-3.99575 0,-0.59512 -0.34007,-0.59512 -0.46759,-0.59512 -0.68013,0 -1.65781,1.87036 -3.99575,1.87036 -0.17003,0 -1.74283,-0.085 -1.74283,-2.33794 0,-0.68013 0.97769,-6.20617 1.36026,-8.84166 0.25505,-1.74283 0.12752,-2.50797 1.36025,-2.50797 0.93518,0 2.76302,0.21254 3.44315,0.21254 0.76514,0 1.02019,-0.25505 1.02019,-1.23273 0,-0.5101 -0.21254,-0.80765 -1.10521,-0.80765 -0.46758,0 -0.80765,0.0425 -2.46546,0.0425 -1.40276,0 -1.48778,-0.0425 -1.48778,-0.29755 0,-0.63762 0.76515,-2.63549 0.76515,-3.1881 0,-0.38257 -0.21254,-0.51009 -0.42508,-0.51009 -0.68013,0 -0.76515,0.5526 -2.46547,2.33793 -1.87035,1.95537 -3.48565,1.91286 -3.48565,2.76302 z"/>
		<path d="m 606.86272,567.41764 c 0,0.59511 0.34006,0.72264 0.51009,0.72264 0.21254,0 0.34006,-0.12753 0.46759,-0.25505 0.25505,-0.29756 0.59511,-2.84804 2.33794,-2.84804 0.76514,0 1.44527,0.76515 1.44527,2.89055 0,3.18809 -1.82784,9.43677 -1.82784,11.13708 0,1.0202 0.85015,1.10521 1.27523,1.10521 h 0.21254 c 1.53029,0 1.44528,0 2.38045,-7.22635 l 0.21254,-1.40277 c 0.21254,-1.78533 1.27524,-7.35387 3.1881,-7.35387 1.53028,0 1.36025,1.78533 2.29543,1.78533 0.76514,0 0.85016,-1.31775 0.93517,-1.6153 0.12753,-0.46759 0.46759,-1.02019 0.46759,-1.5728 0,-0.59511 -0.46759,-1.31774 -1.57279,-1.31774 -3.14559,0 -5.27099,4.37832 -5.56855,4.37832 -0.085,0 -0.12752,-0.0425 -1.19022,-2.80553 -0.25505,-0.68013 -0.68013,-1.48778 -1.5728,-1.48778 -0.38257,0 -3.99574,1.02019 -3.99574,5.8661 z"/>
		<path d="m 620.45398,575.15409 c 0,2.76302 0.51009,5.48353 4.54835,5.48353 4.03826,0 7.56642,-5.10096 7.77896,-5.10096 0.29755,0 -0.085,4.7609 2.63549,4.7609 1.14772,0 3.06057,-1.95537 4.12327,-3.48566 0.55261,-0.76514 0.76515,-1.40276 0.76515,-1.82784 0,-0.17003 -0.0425,-0.46759 -0.38257,-0.46759 -0.80766,0 -1.70032,2.76302 -3.10309,2.76302 -0.80765,0 -1.44527,-1.40276 -1.44527,-2.50797 0,-1.6153 0.42508,-3.57067 0.76515,-5.44102 0.34006,-1.91286 0.59511,-3.86823 0.97768,-5.44102 0.29756,-1.23273 0.85016,-2.25292 0.85016,-2.93305 0,-0.46759 -0.21254,-0.63762 -0.46759,-0.63762 -0.85016,0 -1.36025,2.08289 -2.21041,2.08289 -1.40277,0 -2.29543,-0.46759 -3.61318,-0.46759 -1.10521,0 -1.95537,0.21254 -3.10308,0.76515 -2.25292,1.0627 -4.20829,3.10308 -5.73858,5.52603 -1.31775,2.1254 -2.38044,4.54836 -2.38044,6.9288 z m 2.97555,-0.25505 c 0,-0.76514 0.085,-1.53028 0.21254,-2.29543 0.38258,-2.21041 1.40277,-4.12327 2.6355,-6.16365 1.27524,-2.16791 3.52816,-3.44315 5.27099,-3.44315 0.89266,0 2.80552,0.29756 2.80552,1.48778 0,0.12753 -1.14771,7.94899 -2.1679,9.98937 -0.38258,0.76515 -2.38045,3.82572 -5.44102,3.82572 -1.78534,0 -3.31563,-1.27524 -3.31563,-3.40064 z"/>
		<path d="m 641.69999,566.35494 c 0,0.46759 0.085,0.80765 0.38257,0.80765 0.93518,0 1.40277,-2.38044 2.72051,-2.38044 0.42508,0 0.97769,0.85016 0.97769,2.33794 0,3.27311 -1.87036,9.86184 -1.87036,11.64718 0,1.23273 0.34007,1.31775 1.48778,1.31775 1.10521,0 1.44527,-0.17004 1.5728,-1.10521 0.085,-0.59511 -0.21254,-0.085 0.85016,-5.82359 1.02019,-5.48353 0.51009,-5.10096 2.33794,-7.69395 0.97768,-1.40276 1.78533,-1.87035 2.76301,-1.87035 2.76302,0 2.97556,2.80553 2.97556,3.48566 0,1.57279 -0.89267,7.26886 -0.89267,10.49947 0,1.48777 0.72264,2.678 1.5728,2.678 1.87035,0 5.61105,-2.97556 5.61105,-4.63337 0,-0.25505 -0.085,-0.5101 -0.38257,-0.5101 -0.63762,0 -0.80765,0.5101 -1.31775,1.14772 0,0 -0.97768,0.93517 -1.70032,0.93517 -0.46758,0 -0.80765,-0.34006 -0.80765,-1.53028 0,-1.44527 0.72264,-5.95112 0.72264,-8.92668 0,-2.678 -0.59511,-5.31349 -3.57067,-5.31349 -1.78534,0 -4.03826,1.53028 -5.18597,2.42295 -1.5728,1.19022 -1.87035,2.1254 -2.1254,2.1254 -0.38257,0 0.51009,-4.46334 -1.95537,-4.46334 -1.6153,0 -4.16578,3.1881 -4.16578,4.84591 z"/>
		<path d="m 663.65071,577.70457 c 0,2.25292 3.06057,2.80553 4.71838,2.80553 5.44102,0 6.63125,-4.03826 6.63125,-5.56855 0,-2.84803 -1.61531,-4.03826 -2.93305,-5.52603 -1.02019,-1.10521 -3.35813,-2.84804 -3.35813,-4.46334 0,-1.27524 0.63762,-2.25292 2.25292,-2.25292 1.65781,0 1.82784,2.38044 3.35813,2.38044 0.21254,0 1.6153,-0.12752 1.6153,-1.44527 0,-1.65781 -1.65781,-2.21041 -3.95324,-2.21041 -3.31562,0 -5.78108,1.95536 -5.78108,4.8034 0,2.55048 1.6153,3.65568 3.31562,5.39851 1.53029,1.53029 2.93305,2.76302 2.93305,4.76089 0,0.5101 -0.29756,2.72051 -3.40064,2.72051 -2.59299,0 -1.87035,-2.93305 -4.03826,-2.93305 -0.51009,0 -1.36025,0.21254 -1.36025,1.53029 z"/>
		<path d="m 678.75033,576.34431 c 0,3.99575 1.23273,3.99575 2.08289,3.99575 0.80765,0 2.59299,-0.85016 3.6982,-2.12539 1.02019,-1.19023 2.12539,-2.6355 2.12539,-3.06058 0,-0.42508 -0.21254,-0.68013 -0.51009,-0.68013 -1.10521,0 -1.53029,3.01807 -3.86823,3.01807 -0.5526,0 -0.68012,-0.21254 -0.68012,-1.65781 0,-1.44527 0.51009,-4.12327 1.23273,-9.13921 1.36025,-9.13922 0.63762,-7.56642 2.21041,-15.81297 0.12752,-0.80765 0.42508,-1.36025 0.42508,-1.95537 0,-0.42507 -0.21254,-0.68012 -0.89267,-0.68012 -1.1052,0 -2.04038,0.42508 -5.14346,0.63762 -0.5526,0.0425 -0.63762,0.38257 -0.63762,0.59511 0,0.46759 0.38257,0.59511 1.23273,0.59511 0.5101,0 0.59511,-0.0425 1.23273,-0.0425 0.63762,0 1.0627,0.34007 1.0627,0.85016 0,0.5101 -0.63762,4.33581 -1.36025,8.92667 -0.42508,2.72051 -0.63762,5.73858 -1.0202,8.41658 -0.085,0.68013 -1.19022,5.69607 -1.19022,8.11902 z"/>
		<path d="m 689.28036,575.15409 c 0,2.76302 0.51009,5.48353 4.54835,5.48353 4.03826,0 7.56642,-5.10096 7.77896,-5.10096 0.29755,0 -0.085,4.7609 2.63549,4.7609 1.14772,0 3.06058,-1.95537 4.12328,-3.48566 0.5526,-0.76514 0.76514,-1.40276 0.76514,-1.82784 0,-0.17003 -0.0425,-0.46759 -0.38257,-0.46759 -0.80765,0 -1.70032,2.76302 -3.10308,2.76302 -0.80766,0 -1.44528,-1.40276 -1.44528,-2.50797 0,-1.6153 0.42508,-3.57067 0.76515,-5.44102 0.34006,-1.91286 0.59511,-3.86823 0.97768,-5.44102 0.29756,-1.23273 0.85016,-2.25292 0.85016,-2.93305 0,-0.46759 -0.21254,-0.63762 -0.46759,-0.63762 -0.85016,0 -1.36025,2.08289 -2.21041,2.08289 -1.40276,0 -2.29543,-0.46759 -3.61318,-0.46759 -1.10521,0 -1.95537,0.21254 -3.10308,0.76515 -2.25292,1.0627 -4.20829,3.10308 -5.73858,5.52603 -1.31774,2.1254 -2.38044,4.54836 -2.38044,6.9288 z m 2.97556,-0.25505 c 0,-0.76514 0.085,-1.53028 0.21253,-2.29543 0.38258,-2.21041 1.40277,-4.12327 2.6355,-6.16365 1.27524,-2.16791 3.52816,-3.44315 5.27099,-3.44315 0.89266,0 2.80552,0.29756 2.80552,1.48778 0,0.12753 -1.14771,7.94899 -2.1679,9.98937 -0.38257,0.76515 -2.38045,3.82572 -5.44102,3.82572 -1.78534,0 -3.31562,-1.27524 -3.31562,-3.40064 z"/>
		<path d="m 711.15402,563.42189 c 0,1.19023 2.50797,0.25505 2.50797,1.14772 0,1.14771 -1.78533,8.034 -1.78533,11.94474 0,3.31562 1.57279,3.99575 2.72051,3.99575 2.63549,0 6.24867,-2.89055 6.24867,-3.99575 0,-0.59512 -0.34006,-0.59512 -0.46759,-0.59512 -0.68012,0 -1.65781,1.87036 -3.99575,1.87036 -0.17003,0 -1.74282,-0.085 -1.74282,-2.33794 0,-0.68013 0.97768,-6.20617 1.36025,-8.84166 0.25505,-1.74283 0.12753,-2.50797 1.36026,-2.50797 0.93517,0 2.76302,0.21254 3.44314,0.21254 0.76515,0 1.02019,-0.25505 1.02019,-1.23273 0,-0.5101 -0.21254,-0.80765 -1.1052,-0.80765 -0.46759,0 -0.80765,0.0425 -2.46547,0.0425 -1.40276,0 -1.48777,-0.0425 -1.48777,-0.29755 0,-0.63762 0.76514,-2.63549 0.76514,-3.1881 0,-0.38257 -0.21254,-0.51009 -0.42508,-0.51009 -0.68013,0 -0.76514,0.5526 -2.46546,2.33793 -1.87035,1.95537 -3.48566,1.91286 -3.48566,2.76302 z"/>
		<path d="m 723.40296,573.75133 c 0,3.78321 1.31775,6.75877 6.71626,6.75877 3.69819,0 7.39639,-2.97556 7.39639,-3.95325 0,-0.25504 -0.17003,-0.42508 -0.5101,-0.42508 -0.46759,0 -2.1679,1.82785 -4.59086,1.82785 -4.20829,0 -6.12115,-2.1254 -6.12115,-5.3135 0,-1.10521 0.12753,-1.74283 0.72264,-1.74283 3.99575,-0.0425 6.29118,-0.97768 6.67375,-1.14771 0.80765,-0.34006 4.12327,-2.08289 4.12327,-5.14346 0,-1.87036 -1.70032,-3.14559 -3.69819,-3.14559 -2.38045,0 -4.33581,0.76514 -5.90861,2.25292 -2.93305,2.72051 -4.8034,6.37619 -4.8034,10.03188 z m 3.48566,-4.42083 c 0,-0.5526 0.97768,-3.27311 2.25292,-4.59086 1.1052,-1.14772 2.42295,-1.99788 3.48565,-1.99788 0.72264,0 2.25292,0.38258 2.25292,1.99788 0,2.678 -3.48565,5.44102 -7.60892,5.44102 -0.29756,0 -0.38257,-0.5526 -0.38257,-0.85016 z"/>
		<path d="m 739.86816,574.6865 c 0,3.1881 1.48777,5.65356 5.10095,5.65356 4.20829,0 6.3762,-4.76089 6.75877,-4.76089 0.59511,0 -0.38257,4.76089 2.59299,4.76089 2.76301,0 5.44102,-4.2933 5.44102,-5.18597 0,-0.17003 -0.12753,-0.38257 -0.46759,-0.38257 -0.68013,0 -1.65781,2.63549 -3.52816,2.63549 -0.97769,0 -1.10521,-0.89266 -1.10521,-1.82784 0,-1.27524 0.42508,-3.95324 0.89267,-7.18385 2.38044,-17.38575 2.80552,-18.74601 2.80552,-19.85122 0,-0.38257 -0.29755,-0.72263 -0.68013,-0.72263 -1.14771,0 -0.89266,0.085 -3.27311,0.68013 -1.19022,0.29755 -2.678,0.12752 -2.678,0.85015 0,0.29756 0.25505,0.46759 0.68013,0.46759 0.0425,0 1.02019,-0.0425 1.48778,-0.0425 0.63762,0 1.23273,0.42508 1.23273,1.0627 0,0.29756 -1.40277,11.47715 -1.53029,11.47715 -1.19022,0 -2.04038,-0.5526 -3.14559,-0.5526 -5.05845,0 -10.58448,6.33369 -10.58448,12.92242 z m 2.97555,-1.19022 c 0,-4.46334 3.48566,-10.83953 7.39639,-10.83953 1.14772,0 2.84803,0.5526 2.84803,1.70032 0,1.70032 -0.63762,9.18172 -2.33793,11.30712 -1.10521,1.40276 -2.76302,2.21041 -4.29331,2.21041 -2.59299,0 -3.61318,-1.91286 -3.61318,-4.37832 z"/>
		<path d="m 771.07033,576.98193 c 0,2.46547 2.678,3.57067 5.18597,3.57067 6.58874,0 11.60468,-7.60892 11.60468,-13.39001 0,-2.76301 -1.48778,-5.39851 -4.67588,-5.39851 -4.88842,0 -6.88629,3.95324 -7.4814,3.95324 -0.085,0 -0.21254,-0.34006 -0.21254,-0.63762 0,-3.06057 2.72051,-15.72795 2.72051,-16.49309 0,-0.46759 -0.34007,-0.76514 -0.80765,-0.76514 -0.25505,0 -1.02019,0.25505 -2.67801,0.46759 -1.95536,0.25504 -3.14558,0.21254 -3.14558,1.06269 0,0.59512 0.34006,0.59512 0.80765,0.59512 0.63762,0 1.1052,-0.085 1.74282,-0.085 0.85016,0 1.0627,0.29756 1.0627,0.5101 0,1.02019 -0.25505,2.50797 -0.63762,4.33581 -0.63762,3.14559 -1.14771,7.26886 -1.91286,11.68969 -0.59511,3.44315 -1.57279,7.86397 -1.57279,10.58448 z m 2.80553,-0.51009 c 0,-0.42508 0.46758,-4.97343 1.70031,-8.33156 1.36026,-3.6982 4.12328,-4.12328 5.14347,-4.12328 2.33794,0 4.16578,1.95537 4.16578,4.33582 0,4.88841 -3.91073,11.00956 -7.73645,11.00956 -2.63549,0 -3.27311,-1.44527 -3.27311,-2.89054 z"/>
		<path d="m 789.50617,585.3135 c 0,1.95536 1.70032,2.50797 3.52816,2.50797 3.99575,0 6.71626,-4.84591 8.71414,-9.90436 2.50797,-6.33369 3.52816,-12.19979 3.52816,-14.11265 0,-1.31774 -0.72264,-2.25292 -1.65781,-2.25292 -1.02019,0 -1.44527,0.80765 -1.44527,1.5728 0,1.14771 1.0627,1.99787 1.0627,3.2306 0,2.84804 -0.93518,7.39639 -1.53029,7.39639 -0.46759,0 -4.50585,-12.07226 -8.62912,-12.07226 -2.59299,0 -3.44314,3.69819 -3.44314,5.48352 0,0.72264 0.17003,0.93518 0.42507,0.93518 1.27524,0 0.38258,-3.1881 2.84804,-3.1881 2.25292,0 6.9288,10.96706 6.9288,13.3475 0,1.61531 -2.80553,7.05633 -5.27099,7.05633 -1.95537,0 -1.99787,-1.40277 -3.69819,-1.40277 -0.72264,0 -1.36026,0.68013 -1.36026,1.40277 z"/>
	</g>
	<g aria-label="WILLIAM ROBSON">
		<path d="m 478.06432,640 h 9.731 l 10.99415,-38.59649 h -9.73099 l -6.59649,26.47953 h -0.23392 l -7.01755,-26.47953 h -6.64327 l -7.01755,26.47953 h -0.23391 l -6.5965,-26.47953 h -9.77777 L 455.93567,640 h 9.77778 l 6.17544,-21.66082 z"/>
		<path d="m 514.69444,601.40351 h -8.79532 V 640 h 8.79532 z"/>
		<path d="m 534.13157,601.40351 h -8.79532 V 640 h 22.08187 v -7.7193 h -13.28655 z"/>
		<path d="m 565.53874,601.40351 h -8.79532 V 640 h 22.08187 v -7.7193 h -13.28655 z"/>
		<path d="m 596.9459,601.40351 h -8.79532 V 640 h 8.79532 z"/>
		<path d="M 627.19005,601.40351 H 619.0497 L 603.47075,640 h 9.45029 l 2.8538,-7.7193 H 630.4649 L 633.3187,640 h 9.4503 z m 0.2807,23.15789 H 618.769 l 4.30409,-11.22807 h 0.0936 z"/>
		<path d="m 681.13523,640 h 8.79532 l -3.46199,-38.59649 h -9.35673 l -8.5614,22.269 -8.5614,-22.269 H 650.6323 L 647.17031,640 h 8.79532 l 1.82457,-22.87719 h 0.23391 l 7.90644,22.64327 h 5.23976 l 7.90644,-22.64327 h 0.23391 z"/>
		<path d="M 716.24634,601.40351 V 640 h 8.79532 V 624.74854 L 736.83114,640 h 11.18128 l -13.28655,-15.95322 c 4.72515,-1.49707 7.90643,-5.38011 7.90643,-11.18128 0,-7.57895 -5.4269,-11.46199 -12.58479,-11.46199 z m 8.79532,17.12281 v -10.10527 h 1.02924 c 3.32164,0 7.29825,0.23392 7.29825,5.05263 0,4.81872 -3.97661,5.05264 -7.29825,5.05264 z"/>
		<path d="m 753.04971,620.67836 c 0,11.27486 8.04678,20.02339 19.46199,20.02339 11.08772,0 19.4152,-8.74853 19.4152,-20.02339 0,-11.27485 -8.70175,-19.97661 -19.4152,-19.97661 -10.61989,0 -19.46199,8.70176 -19.46199,19.97661 z m 9.49707,0 c 0,-5.75438 3.18129,-11.50877 9.96492,-11.50877 6.83041,0 9.91813,5.75439 9.91813,11.50877 0,5.75439 -2.90059,11.50877 -9.91813,11.50877 -7.20468,0 -9.96492,-5.75438 -9.96492,-11.50877 z"/>
		<path d="M 800.80774,601.40351 V 640 h 14.64328 c 8,0 12.63158,-4.39766 12.63158,-10.76023 0,-6.22223 -3.41521,-8.88889 -8.23392,-9.731 3.27485,-1.68421 4.81871,-4.72514 4.81871,-8.2807 0,-7.34503 -5.23977,-9.82456 -11.88304,-9.82456 z m 8.79532,15.11111 v -8.32749 h 0.70176 c 3.83625,0 5.84795,1.16959 5.84795,3.92983 0,3.22807 -2.05848,4.39766 -5.84795,4.39766 z m 0,16.70175 v -9.1228 h 2.76024 c 4.16374,0 6.45614,1.26315 6.45614,4.81871 0,3.04094 -2.2924,4.30409 -6.45614,4.30409 z"/>
		<path d="m 850.27487,600.70175 c -6.22223,0 -12.5848,4.5848 -12.5848,11.78948 0,4.02339 2.71345,7.62573 7.34503,9.91813 4.5848,2.29239 8.70176,3.55555 8.70176,6.36257 0,3.60234 -3.64913,3.78947 -5.56726,3.78947 -4.30409,0 -9.45029,-4.35087 -9.45029,-4.35087 l -4.39766,7.39181 c 0,0 5.47368,5.09941 14.50292,5.09941 7.53217,0 14.54971,-3.22807 14.54971,-12.44444 0,-5.05263 -4.72514,-8.70175 -9.02924,-10.52632 -4.39766,-1.87134 -8.04678,-3.4152 -8.04678,-5.56725 0,-2.10526 1.59064,-3.46199 4.58479,-3.46199 3.97661,0 7.81287,2.66667 7.81287,2.66667 l 3.55556,-7.01754 c 0,0 -4.95907,-3.64913 -11.97661,-3.64913 z"/>
		<path d="m 870.75439,620.67836 c 0,11.27486 8.04678,20.02339 19.46199,20.02339 11.08772,0 19.4152,-8.74853 19.4152,-20.02339 0,-11.27485 -8.70175,-19.97661 -19.4152,-19.97661 -10.61989,0 -19.46199,8.70176 -19.46199,19.97661 z m 9.49708,0 c 0,-5.75438 3.18128,-11.50877 9.96491,-11.50877 6.83041,0 9.91813,5.75439 9.91813,11.50877 0,5.75439 -2.90059,11.50877 -9.91813,11.50877 -7.20468,0 -9.96491,-5.75438 -9.96491,-11.50877 z"/>
		<path d="m 927.30774,616.04678 h 0.0936 L 942.74634,640 h 8.79532 v -38.59649 h -8.79532 v 23.95321 h -0.0936 l -15.34503,-23.95321 h -8.79532 V 640 h 8.79532 z"/>
	</g>
</svg>
